<svg xmlns="http://www.w3.org/2000/svg" viewBox="0 0 420 381.66"><path d="M305.18,1.52a9.08,9.08,0,0,0-5-1.52H119.36a9.06,9.06,0,0,0-5,1.52L1.85,81.36s5.06,9,9,9H408.62c4,0,9-9,9-9Z" style="fill:#a67c52"/><path d="M0,80.36v283a18.25,18.25,0,0,0,18.26,18.26H401.74A18.25,18.25,0,0,0,420,363.4v-283Z" style="fill:#c19f85"/><polygon points="155.52 81.36 182.64 0 236.87 0 263.99 81.36 155.52 81.36" style="fill:#d1b43d"/><rect x="155.52" y="81.36" width="108.47" height="83.3" style="fill:#efd358"/><rect x="155.76" y="336.36" width="108.47" height="45.3" style="fill:#efd358"/><path d="M210.19,173.66q-50.79,0-63.49,50.79,19.05-25.39,44.44-19c9.66,2.41,16.57,9.42,24.21,17.18,12.44,12.63,26.86,27.26,58.33,27.26q50.79,0,63.49-50.79-19.05,25.4-44.44,19c-9.66-2.41-16.57-9.42-24.21-17.18C256.07,188.29,241.66,173.66,210.19,173.66ZM146.7,249.85q-50.79,0-63.49,50.79,19-25.39,44.44-19.05c9.66,2.42,16.57,9.43,24.21,17.18C164.3,311.41,178.72,326,210.19,326q50.79,0,63.49-50.79-19,25.39-44.44,19c-9.66-2.41-16.57-9.42-24.21-17.18C192.58,264.48,178.17,249.85,146.7,249.85Z" style="fill:#16bdca"/></svg>